<svg xmlns="http://www.w3.org/2000/svg" xmlns:xlink="http://www.w3.org/1999/xlink" width="500" zoomAndPan="magnify" viewBox="0 0 375 374.999991" height="500" preserveAspectRatio="xMidYMid meet" version="1.0"><defs><g/><clipPath id="878454878c"><path d="M 128.125 168.152344 L 246.910156 168.152344 L 246.910156 255.039062 L 128.125 255.039062 Z M 128.125 168.152344 " clip-rule="nonzero"/></clipPath><clipPath id="7865b6e640"><path d="M 109.722656 116.289062 L 264.972656 116.289062 L 264.972656 186.460938 L 109.722656 186.460938 Z M 109.722656 116.289062 " clip-rule="nonzero"/></clipPath><clipPath id="a7fff1d748"><path d="M 255 165.699219 L 288.660156 165.699219 L 288.660156 197 L 255 197 Z M 255 165.699219 " clip-rule="nonzero"/></clipPath><clipPath id="a5cca615e4"><path d="M 239.910156 194 L 256 194 L 256 197.199219 L 239.910156 197.199219 Z M 239.910156 194 " clip-rule="nonzero"/></clipPath><clipPath id="00d893c929"><path d="M 85.992188 165.699219 L 134.742188 165.699219 L 134.742188 197.199219 L 85.992188 197.199219 Z M 85.992188 165.699219 " clip-rule="nonzero"/></clipPath><clipPath id="03cfb70595"><path d="M 1.332031 0.699219 L 35 0.699219 L 35 32 L 1.332031 32 Z M 1.332031 0.699219 " clip-rule="nonzero"/></clipPath><clipPath id="e4fc67cb6e"><path d="M 34 29 L 49.742188 29 L 49.742188 32.199219 L 34 32.199219 Z M 34 29 " clip-rule="nonzero"/></clipPath><clipPath id="d04ff413bf"><rect x="0" width="50" y="0" height="33"/></clipPath><clipPath id="4a4c636b1d"><path d="M 174 89.078125 L 201 89.078125 L 201 115 L 174 115 Z M 174 89.078125 " clip-rule="nonzero"/></clipPath><clipPath id="25adf4c616"><path d="M 114 119 L 125 119 L 125 129.578125 L 114 129.578125 Z M 114 119 " clip-rule="nonzero"/></clipPath><clipPath id="995553e57b"><path d="M 250 119 L 261 119 L 261 129.578125 L 250 129.578125 Z M 250 119 " clip-rule="nonzero"/></clipPath><clipPath id="d06e72f834"><rect x="0" width="107" y="0" height="36"/></clipPath><clipPath id="acfc451bd2"><rect x="0" width="76" y="0" height="9"/></clipPath></defs><rect x="-37.5" width="450" fill="#ffffff" y="-37.499999" height="449.999989" fill-opacity="1"/><rect x="-37.5" width="450" fill="#ffffff" y="-37.499999" height="449.999989" fill-opacity="1"/><g clip-path="url(#878454878c)"><path fill="#0979bd" d="M 246.871094 233.34375 L 243.683594 233.230469 C 243.601562 233.226562 235.179688 232.96875 224.320312 235.390625 C 214.40625 237.601562 200.351562 242.5625 189.695312 253.660156 L 188.113281 255.308594 L 186.441406 253.75 C 175.183594 243.265625 160.875 239.089844 150.851562 237.4375 C 139.875 235.621094 131.480469 236.347656 131.398438 236.355469 L 128.136719 236.648438 L 128.941406 233.472656 L 145.558594 168.175781 L 147.359375 168.175781 C 147.359375 168.175781 153.835938 168.175781 159.15625 168.175781 L 159.453125 168.175781 L 158.125 172.816406 L 157.40625 172.816406 C 154.304688 172.816406 151.097656 172.816406 149.164062 172.816406 L 134.210938 231.578125 C 137.78125 231.5 144.015625 231.617188 151.472656 232.835938 C 158.257812 233.949219 164.648438 235.746094 170.46875 238.1875 C 177.046875 240.945312 182.910156 244.53125 187.933594 248.859375 C 192.707031 244.257812 198.359375 240.351562 204.777344 237.234375 C 210.453125 234.472656 216.734375 232.320312 223.445312 230.835938 C 230.882812 229.1875 237.140625 228.730469 240.695312 228.617188 L 224.746094 172.867188 C 223.011719 172.867188 220.234375 172.867188 217.605469 172.863281 L 216.878906 172.863281 L 215.550781 168.226562 C 215.652344 168.226562 215.753906 168.226562 215.855469 168.226562 C 220.476562 168.226562 226.496094 168.226562 226.496094 168.226562 L 228.246094 168.226562 L 246.871094 233.34375 " fill-opacity="1" fill-rule="nonzero"/></g><path fill="#58bceb" d="M 193.1875 176.324219 C 193.1875 179.476562 190.628906 182.035156 187.476562 182.035156 C 184.324219 182.035156 181.765625 179.476562 181.765625 176.324219 C 181.765625 173.171875 184.324219 170.613281 187.476562 170.613281 C 190.628906 170.613281 193.1875 173.171875 193.1875 176.324219 " fill-opacity="1" fill-rule="nonzero"/><path fill="#19467e" d="M 200.820312 175.515625 C 191.664062 194.398438 188.929688 216.691406 188.929688 216.691406 C 200.945312 201.066406 218.75 197.585938 218.75 197.585938 C 195.925781 200.214844 200.820312 175.515625 200.820312 175.515625 " fill-opacity="1" fill-rule="nonzero"/><path fill="#19467e" d="M 213.894531 190.433594 C 213.242188 193.726562 210.039062 195.867188 206.746094 195.214844 C 203.453125 194.5625 201.3125 191.363281 201.964844 188.070312 C 202.617188 184.773438 205.816406 182.632812 209.113281 183.285156 C 212.40625 183.9375 214.546875 187.140625 213.894531 190.433594 " fill-opacity="1" fill-rule="nonzero"/><path fill="#0979bd" d="M 174.132812 175.515625 C 183.289062 194.398438 186.023438 216.691406 186.023438 216.691406 C 174.007812 201.066406 156.203125 197.585938 156.203125 197.585938 C 179.027344 200.214844 174.132812 175.515625 174.132812 175.515625 " fill-opacity="1" fill-rule="nonzero"/><path fill="#0979bd" d="M 161.339844 190.433594 C 161.992188 193.726562 165.191406 195.867188 168.484375 195.214844 C 171.78125 194.5625 173.921875 191.363281 173.269531 188.070312 C 172.617188 184.773438 169.417969 182.632812 166.121094 183.285156 C 162.828125 183.9375 160.6875 187.140625 161.339844 190.433594 " fill-opacity="1" fill-rule="nonzero"/><path fill="#58bceb" d="M 187.476562 181.550781 C 181.203125 181.550781 175.105469 174.40625 175.105469 174.40625 C 184.285156 188.84375 187.476562 217.769531 187.476562 217.769531 C 187.476562 217.769531 190.667969 188.84375 199.847656 174.40625 C 199.847656 174.40625 193.617188 181.550781 187.476562 181.550781 " fill-opacity="1" fill-rule="nonzero"/><path fill="#a6a8ab" d="M 187.476562 147.671875 L 189.734375 154.621094 L 197.042969 154.621094 L 191.132812 158.917969 L 193.390625 165.867188 L 187.476562 161.574219 L 181.5625 165.867188 L 183.824219 158.917969 L 177.910156 154.621094 L 185.21875 154.621094 L 187.476562 147.671875 " fill-opacity="1" fill-rule="nonzero"/><path fill="#a6a8ab" d="M 236.859375 223.886719 C 236.859375 223.886719 206.324219 221.183594 187.496094 239.929688 L 187.496094 226.613281 C 203.644531 212.582031 228.640625 213.988281 228.640625 213.988281 L 216.878906 172.863281 L 215.550781 168.226562 L 214.605469 164.917969 L 215.855469 168.226562 L 217.605469 172.863281 L 236.859375 223.886719 " fill-opacity="1" fill-rule="nonzero"/><path fill="#a6a8ab" d="M 187.496094 226.613281 L 187.496094 239.929688 C 168.667969 221.183594 138.132812 223.886719 138.132812 223.886719 L 157.40625 172.816406 L 159.15625 168.175781 L 160.386719 164.917969 L 159.453125 168.175781 L 158.125 172.816406 L 146.351562 213.988281 C 146.351562 213.988281 171.351562 212.582031 187.496094 226.613281 " fill-opacity="1" fill-rule="nonzero"/><g clip-path="url(#7865b6e640)"><path fill="#0979bd" d="M 265.265625 172.828125 L 187.496094 116.289062 L 109.722656 172.828125 L 134.570312 186.425781 L 120.488281 173.632812 L 187.496094 129.613281 L 254.5 173.632812 L 240.417969 186.425781 L 265.265625 172.828125 " fill-opacity="1" fill-rule="nonzero"/></g><g clip-path="url(#a7fff1d748)"><path fill="#0979bd" d="M 289.003906 165.753906 C 288.597656 168.1875 287.089844 170.742188 284.488281 172.183594 C 281.921875 173.527344 277.074219 174.746094 273.496094 180.925781 C 272.117188 182.886719 268.535156 183.851562 267.066406 183.917969 C 268.058594 184.15625 270.296875 183.65625 270.296875 183.65625 C 269.40625 184.234375 266.199219 187.171875 262.144531 188.644531 C 262.125 188.667969 262.109375 188.691406 262.09375 188.710938 C 261.5625 189.363281 261.441406 190.546875 261.441406 190.546875 C 261.441406 190.546875 261.589844 192 261.46875 194.132812 L 261.46875 194.136719 C 258.84375 194.027344 256.390625 196.523438 256.246094 196.675781 L 259.03125 192.445312 L 259.042969 192.445312 C 259.484375 192.445312 259.84375 192.128906 259.84375 191.742188 C 259.84375 191.351562 259.484375 191.039062 259.042969 191.039062 C 258.605469 191.039062 258.242188 191.355469 258.242188 191.742188 C 258.242188 191.898438 258.300781 192.042969 258.398438 192.160156 C 258.191406 192.46875 257.058594 194.160156 255.714844 196.160156 C 256.707031 193.09375 255.421875 191.015625 255.421875 191.015625 C 255.421875 191.015625 257.78125 189.851562 258.503906 189.535156 C 259.226562 189.21875 259.71875 188.933594 260.289062 187.90625 C 260.402344 187.726562 260.519531 187.582031 260.628906 187.464844 C 260.53125 184.167969 261.136719 176.691406 268.09375 173.472656 C 266.734375 175.46875 266.664062 176.3125 266.570312 176.9375 C 266.570312 176.9375 268.167969 173.347656 270.707031 172.386719 C 273.246094 171.429688 277.105469 170.835938 278.207031 170.558594 C 279.179688 170.3125 286 168.554688 288.359375 166.355469 C 287.984375 166.882812 287.542969 167.363281 287.066406 167.804688 C 286.445312 168.378906 285.75 168.878906 285.035156 169.332031 C 284.316406 169.789062 283.570312 170.199219 282.804688 170.578125 C 281.277344 171.34375 279.695312 172 278.109375 172.65625 C 276.523438 173.3125 274.929688 173.960938 273.359375 174.695312 C 272.964844 174.878906 272.574219 175.0625 272.191406 175.257812 C 272.09375 175.308594 271.996094 175.355469 271.898438 175.410156 L 271.613281 175.570312 L 271.035156 175.890625 C 270.277344 176.332031 269.546875 176.824219 268.851562 177.355469 C 267.460938 178.421875 266.1875 179.640625 265.054688 180.976562 C 264.484375 181.640625 263.953125 182.335938 263.445312 183.050781 L 263.070312 183.59375 C 262.949219 183.777344 262.832031 183.964844 262.714844 184.148438 C 262.597656 184.335938 262.480469 184.523438 262.371094 184.710938 C 262.257812 184.90625 262.148438 185.089844 262.039062 185.304688 C 262.039062 185.308594 262.03125 185.316406 262.03125 185.320312 C 261.882812 185.621094 262.007812 185.984375 262.308594 186.132812 C 262.609375 186.277344 262.972656 186.152344 263.121094 185.847656 L 263.125 185.839844 C 263.207031 185.667969 263.308594 185.480469 263.40625 185.300781 C 263.511719 185.117188 263.613281 184.9375 263.71875 184.757812 C 263.828125 184.578125 263.933594 184.394531 264.046875 184.21875 L 264.386719 183.6875 C 264.851562 182.988281 265.34375 182.304688 265.875 181.648438 C 266.921875 180.332031 268.113281 179.125 269.417969 178.0625 C 270.070312 177.535156 270.753906 177.042969 271.46875 176.601562 L 272.28125 176.117188 C 272.371094 176.0625 272.464844 176.015625 272.558594 175.964844 C 272.933594 175.761719 273.308594 175.566406 273.691406 175.375 C 275.214844 174.609375 276.78125 173.914062 278.351562 173.210938 C 279.917969 172.511719 281.492188 171.800781 283.011719 170.984375 C 283.773438 170.574219 284.523438 170.136719 285.242188 169.652344 C 285.960938 169.167969 286.652344 168.636719 287.273438 168.027344 C 287.898438 167.417969 288.453125 166.734375 288.886719 165.980469 C 288.925781 165.902344 288.964844 165.828125 289.003906 165.753906 Z M 289.003906 165.753906 " fill-opacity="1" fill-rule="nonzero"/></g><g clip-path="url(#a5cca615e4)"><path fill="#0979bd" d="M 253.753906 196.75 C 253.160156 196.742188 252.566406 196.734375 251.984375 196.714844 C 251.691406 196.703125 251.398438 196.683594 251.121094 196.652344 C 251.109375 196.652344 251.09375 196.648438 251.082031 196.648438 C 251.167969 196.605469 251.253906 196.5625 251.34375 196.519531 L 252.152344 196.140625 L 252.160156 196.136719 L 252.183594 196.121094 C 252.3125 196.042969 252.441406 195.964844 252.570312 195.875 C 252.636719 195.828125 252.703125 195.777344 252.773438 195.722656 C 252.847656 195.660156 252.921875 195.601562 253.019531 195.449219 C 253.027344 195.4375 253.042969 195.40625 253.054688 195.378906 C 253.066406 195.347656 253.074219 195.328125 253.085938 195.289062 C 253.09375 195.25 253.097656 195.207031 253.101562 195.167969 C 253.101562 195.121094 253.09375 195.070312 253.085938 195.023438 C 253.035156 194.835938 252.902344 194.726562 252.839844 194.683594 C 252.6875 194.589844 252.597656 194.570312 252.503906 194.542969 C 252.328125 194.496094 252.171875 194.472656 252.019531 194.453125 C 251.410156 194.378906 250.851562 194.335938 250.253906 194.304688 C 249.050781 194.277344 247.886719 194.355469 246.722656 194.503906 C 246.140625 194.574219 245.5625 194.660156 244.992188 194.765625 C 244.417969 194.867188 243.847656 194.972656 243.277344 195.101562 C 242.140625 195.351562 241.015625 195.644531 239.910156 196.011719 L 243.367188 195.640625 L 245.089844 195.46875 C 245.664062 195.417969 246.234375 195.363281 246.804688 195.320312 C 247.945312 195.246094 249.097656 195.171875 250.210938 195.21875 C 250.753906 195.246094 251.332031 195.277344 251.863281 195.332031 C 251.824219 195.359375 251.785156 195.386719 251.746094 195.410156 L 250.984375 195.8125 C 250.847656 195.886719 250.714844 195.960938 250.574219 196.050781 C 250.507812 196.097656 250.4375 196.140625 250.363281 196.195312 C 250.292969 196.257812 250.21875 196.308594 250.125 196.441406 C 250.101562 196.480469 250.082031 196.5 250.058594 196.574219 C 250.035156 196.640625 250.019531 196.691406 250.03125 196.789062 C 250.035156 196.832031 250.046875 196.875 250.0625 196.917969 C 250.082031 196.953125 250.097656 196.976562 250.121094 197.007812 C 250.140625 197.035156 250.164062 197.0625 250.1875 197.085938 C 250.207031 197.101562 250.222656 197.109375 250.242188 197.125 C 250.273438 197.148438 250.316406 197.171875 250.347656 197.183594 L 250.429688 197.214844 C 250.488281 197.238281 250.53125 197.242188 250.574219 197.253906 C 250.757812 197.289062 250.914062 197.296875 251.074219 197.300781 C 251.386719 197.3125 251.6875 197.292969 251.988281 197.273438 C 252.589844 197.230469 253.183594 197.160156 253.773438 197.078125 C 254.367188 196.996094 254.953125 196.894531 255.539062 196.777344 C 254.941406 196.757812 254.347656 196.757812 253.753906 196.75 Z M 253.753906 196.75 " fill-opacity="1" fill-rule="nonzero"/></g><g clip-path="url(#00d893c929)"><g transform="matrix(1, 0, 0, 1, 85, 165)"><g clip-path="url(#d04ff413bf)"><g clip-path="url(#03cfb70595)"><path fill="#0979bd" d="M 0.984375 0.753906 C 1.394531 3.1875 2.898438 5.742188 5.503906 7.183594 C 8.066406 8.527344 12.917969 9.746094 16.496094 15.925781 C 17.871094 17.886719 21.457031 18.851562 22.925781 18.917969 C 21.933594 19.15625 19.695312 18.65625 19.695312 18.65625 C 20.585938 19.234375 23.792969 22.171875 27.847656 23.644531 C 27.863281 23.667969 27.882812 23.691406 27.898438 23.710938 C 28.429688 24.363281 28.550781 25.546875 28.550781 25.546875 C 28.550781 25.546875 28.402344 27 28.519531 29.132812 L 28.519531 29.136719 C 31.148438 29.027344 33.601562 31.523438 33.746094 31.675781 L 30.960938 27.445312 L 30.945312 27.445312 C 30.507812 27.445312 30.148438 27.128906 30.148438 26.742188 C 30.148438 26.351562 30.507812 26.039062 30.945312 26.039062 C 31.386719 26.039062 31.746094 26.355469 31.746094 26.742188 C 31.746094 26.898438 31.691406 27.042969 31.59375 27.160156 C 31.796875 27.46875 32.933594 29.160156 34.273438 31.160156 C 33.285156 28.09375 34.570312 26.015625 34.570312 26.015625 C 34.570312 26.015625 32.210938 24.851562 31.488281 24.535156 C 30.765625 24.21875 30.273438 23.933594 29.703125 22.90625 C 29.589844 22.726562 29.472656 22.582031 29.363281 22.464844 C 29.460938 19.167969 28.855469 11.691406 21.898438 8.472656 C 23.257812 10.46875 23.328125 11.3125 23.421875 11.9375 C 23.421875 11.9375 21.824219 8.347656 19.285156 7.386719 C 16.746094 6.429688 12.886719 5.835938 11.785156 5.558594 C 10.8125 5.3125 3.992188 3.554688 1.632812 1.355469 C 2.007812 1.882812 2.449219 2.363281 2.925781 2.804688 C 3.546875 3.378906 4.242188 3.878906 4.957031 4.332031 C 5.675781 4.789062 6.421875 5.199219 7.1875 5.578125 C 8.714844 6.34375 10.296875 7 11.882812 7.65625 C 13.46875 8.3125 15.0625 8.960938 16.632812 9.695312 C 17.027344 9.878906 17.414062 10.0625 17.800781 10.257812 C 17.898438 10.308594 17.996094 10.355469 18.09375 10.410156 L 18.378906 10.570312 L 18.957031 10.890625 C 19.714844 11.332031 20.441406 11.824219 21.140625 12.355469 C 22.53125 13.421875 23.804688 14.640625 24.9375 15.976562 C 25.507812 16.640625 26.039062 17.335938 26.546875 18.050781 L 26.917969 18.59375 C 27.039062 18.777344 27.15625 18.964844 27.277344 19.148438 C 27.394531 19.335938 27.507812 19.523438 27.621094 19.710938 C 27.734375 19.90625 27.84375 20.089844 27.953125 20.304688 C 27.953125 20.308594 27.960938 20.316406 27.960938 20.320312 C 28.109375 20.621094 27.980469 20.984375 27.679688 21.132812 C 27.378906 21.277344 27.019531 21.152344 26.871094 20.847656 L 26.867188 20.839844 C 26.785156 20.667969 26.683594 20.480469 26.585938 20.300781 C 26.480469 20.117188 26.378906 19.9375 26.273438 19.757812 C 26.160156 19.578125 26.058594 19.394531 25.945312 19.21875 L 25.605469 18.6875 C 25.136719 17.988281 24.648438 17.304688 24.117188 16.648438 C 23.070312 15.332031 21.878906 14.125 20.574219 13.0625 C 19.921875 12.535156 19.238281 12.042969 18.523438 11.601562 L 17.710938 11.117188 C 17.621094 11.0625 17.527344 11.015625 17.433594 10.964844 C 17.058594 10.761719 16.679688 10.566406 16.300781 10.375 C 14.777344 9.609375 13.210938 8.914062 11.640625 8.210938 C 10.074219 7.511719 8.5 6.800781 6.976562 5.984375 C 6.214844 5.574219 5.46875 5.136719 4.746094 4.652344 C 4.03125 4.167969 3.339844 3.636719 2.714844 3.027344 C 2.09375 2.417969 1.539062 1.734375 1.105469 0.980469 C 1.066406 0.902344 1.023438 0.828125 0.984375 0.753906 Z M 0.984375 0.753906 " fill-opacity="1" fill-rule="nonzero"/></g><g clip-path="url(#e4fc67cb6e)"><path fill="#0979bd" d="M 36.238281 31.75 C 36.832031 31.742188 37.421875 31.734375 38.007812 31.714844 C 38.300781 31.703125 38.59375 31.683594 38.871094 31.652344 C 38.882812 31.652344 38.898438 31.648438 38.910156 31.648438 C 38.824219 31.605469 38.738281 31.5625 38.648438 31.519531 L 37.839844 31.140625 L 37.832031 31.136719 L 37.808594 31.121094 C 37.679688 31.042969 37.550781 30.964844 37.421875 30.875 C 37.355469 30.828125 37.289062 30.777344 37.21875 30.722656 C 37.144531 30.660156 37.070312 30.601562 36.972656 30.449219 C 36.964844 30.4375 36.949219 30.40625 36.9375 30.378906 C 36.925781 30.347656 36.917969 30.328125 36.90625 30.289062 C 36.898438 30.25 36.894531 30.207031 36.890625 30.167969 C 36.890625 30.121094 36.898438 30.070312 36.90625 30.023438 C 36.957031 29.835938 37.089844 29.726562 37.152344 29.683594 C 37.304688 29.589844 37.394531 29.570312 37.488281 29.542969 C 37.664062 29.496094 37.816406 29.472656 37.972656 29.453125 C 38.582031 29.378906 39.140625 29.335938 39.738281 29.304688 C 40.941406 29.277344 42.105469 29.355469 43.269531 29.503906 C 43.847656 29.574219 44.429688 29.660156 45 29.765625 C 45.574219 29.867188 46.144531 29.972656 46.714844 30.101562 C 47.851562 30.351562 48.976562 30.644531 50.082031 31.011719 L 46.625 30.640625 L 44.902344 30.46875 C 44.328125 30.417969 43.757812 30.363281 43.1875 30.320312 C 42.046875 30.246094 40.894531 30.171875 39.78125 30.21875 C 39.238281 30.246094 38.660156 30.277344 38.128906 30.332031 C 38.167969 30.359375 38.207031 30.386719 38.246094 30.410156 L 39.007812 30.8125 C 39.140625 30.886719 39.277344 30.960938 39.414062 31.050781 C 39.484375 31.097656 39.554688 31.140625 39.625 31.195312 C 39.699219 31.257812 39.773438 31.308594 39.867188 31.441406 C 39.890625 31.480469 39.910156 31.5 39.933594 31.574219 C 39.953125 31.640625 39.972656 31.691406 39.960938 31.789062 C 39.953125 31.832031 39.945312 31.875 39.925781 31.917969 C 39.910156 31.953125 39.894531 31.976562 39.871094 32.007812 C 39.851562 32.035156 39.828125 32.0625 39.804688 32.085938 C 39.78125 32.101562 39.769531 32.109375 39.75 32.125 C 39.714844 32.148438 39.675781 32.171875 39.644531 32.183594 L 39.5625 32.214844 C 39.503906 32.234375 39.460938 32.242188 39.414062 32.253906 C 39.230469 32.289062 39.074219 32.296875 38.917969 32.300781 C 38.601562 32.3125 38.300781 32.292969 38 32.273438 C 37.402344 32.230469 36.808594 32.160156 36.214844 32.078125 C 35.625 31.996094 35.035156 31.894531 34.453125 31.777344 C 35.046875 31.757812 35.644531 31.757812 36.238281 31.75 Z M 36.238281 31.75 " fill-opacity="1" fill-rule="nonzero"/></g></g></g></g><g clip-path="url(#4a4c636b1d)"><path fill="#58bceb" d="M 187.5 89.074219 L 190.648438 98.773438 L 200.84375 98.773438 L 192.597656 104.765625 L 195.746094 114.460938 L 187.5 108.46875 L 179.253906 114.460938 L 182.402344 104.765625 L 174.152344 98.773438 L 184.347656 98.773438 L 187.5 89.074219 " fill-opacity="1" fill-rule="nonzero"/></g><path fill="#58bceb" d="M 144.910156 103.582031 L 146.855469 109.570312 L 153.15625 109.570312 L 148.058594 113.277344 L 150.003906 119.269531 L 144.910156 115.566406 L 139.8125 119.269531 L 141.757812 113.277344 L 136.660156 109.570312 L 142.960938 109.570312 L 144.910156 103.582031 " fill-opacity="1" fill-rule="nonzero"/><g clip-path="url(#25adf4c616)"><path fill="#58bceb" d="M 119.226562 119.59375 L 120.429688 123.296875 L 124.324219 123.296875 L 121.171875 125.585938 L 122.375 129.289062 L 119.226562 127 L 116.078125 129.289062 L 117.28125 125.585938 L 114.128906 123.296875 L 118.023438 123.296875 L 119.226562 119.59375 " fill-opacity="1" fill-rule="nonzero"/></g><path fill="#58bceb" d="M 230.089844 103.582031 L 228.140625 109.570312 L 221.839844 109.570312 L 226.9375 113.277344 L 224.992188 119.269531 L 230.089844 115.566406 L 235.1875 119.269531 L 233.242188 113.277344 L 238.339844 109.570312 L 232.035156 109.570312 L 230.089844 103.582031 " fill-opacity="1" fill-rule="nonzero"/><g clip-path="url(#995553e57b)"><path fill="#58bceb" d="M 255.773438 119.59375 L 254.570312 123.296875 L 250.675781 123.296875 L 253.824219 125.585938 L 252.621094 129.289062 L 255.773438 127 L 258.921875 129.289062 L 257.71875 125.585938 L 260.871094 123.296875 L 256.976562 123.296875 L 255.773438 119.59375 " fill-opacity="1" fill-rule="nonzero"/></g><g transform="matrix(1, 0, 0, 1, 134, 249)"><g clip-path="url(#d06e72f834)"><g fill="#19467e" fill-opacity="1"><g transform="translate(0.991533, 24.53383)"><g><path d="M 15.125 0 L 13.78125 -3.796875 L 5.765625 -3.796875 L 4.421875 0 L 0.25 0 L 7.34375 -18.140625 L 12.375 -18.140625 L 19.453125 0 Z M 6.921875 -7.078125 L 12.625 -7.078125 L 9.765625 -15.140625 Z M 6.921875 -7.078125 "/></g></g></g><g fill="#19467e" fill-opacity="1"><g transform="translate(19.944809, 24.53383)"><g><path d="M 11 -14.953125 L 8.078125 -14.953125 L 8.078125 -3.1875 L 11 -3.1875 L 11 0 L 1.109375 0 L 1.109375 -3.1875 L 3.984375 -3.1875 L 3.984375 -14.953125 L 1.109375 -14.953125 L 1.109375 -18.140625 L 11 -18.140625 Z M 11 -14.953125 "/></g></g></g><g fill="#19467e" fill-opacity="1"><g transform="translate(31.236058, 24.53383)"><g><path d="M 1.9375 0 L 1.9375 -18.140625 L 7.171875 -18.140625 L 11.53125 -6.96875 L 12.265625 -4.3125 L 13.015625 -6.96875 L 17.359375 -18.140625 L 22.59375 -18.140625 L 22.59375 0 L 18.75 0 L 18.75 -11.453125 L 18.84375 -13.71875 L 18.078125 -11.5 L 13.734375 0 L 10.53125 0 L 6.203125 -11.46875 L 5.421875 -13.75 L 5.5 -11.484375 L 5.5 0 Z M 1.9375 0 "/></g></g></g><g fill="#19467e" fill-opacity="1"><g transform="translate(55.06518, 24.53383)"><g><path d="M 1.9375 0 L 1.9375 -18.140625 L 15.875 -18.140625 L 15.875 -14.890625 L 6.03125 -14.890625 L 6.03125 -10.703125 L 14.125 -10.703125 L 14.125 -7.75 L 6.03125 -7.75 L 6.03125 -3.25 L 16.09375 -3.25 L 16.09375 0 Z M 1.9375 0 "/></g></g></g><g fill="#19467e" fill-opacity="1"><g transform="translate(71.244933, 24.53383)"><g><path d="M 1.9375 0 L 1.9375 -18.140625 L 10.828125 -18.140625 C 11.796875 -18.140625 12.6875 -18.035156 13.5 -17.828125 C 14.3125 -17.628906 15.015625 -17.304688 15.609375 -16.859375 C 16.203125 -16.421875 16.660156 -15.859375 16.984375 -15.171875 C 17.304688 -14.492188 17.46875 -13.671875 17.46875 -12.703125 C 17.46875 -11.847656 17.300781 -11.085938 16.96875 -10.421875 C 16.632812 -9.753906 16.175781 -9.210938 15.59375 -8.796875 C 15.007812 -8.390625 14.34375 -8.128906 13.59375 -8.015625 C 14 -7.953125 14.40625 -7.796875 14.8125 -7.546875 C 15.21875 -7.296875 15.582031 -6.929688 15.90625 -6.453125 C 16.238281 -5.984375 16.492188 -5.378906 16.671875 -4.640625 L 17.203125 -2.375 C 17.359375 -1.726562 17.535156 -1.210938 17.734375 -0.828125 C 17.941406 -0.453125 18.113281 -0.175781 18.25 0 L 14.0625 0 C 13.96875 -0.113281 13.875 -0.25 13.78125 -0.40625 C 13.695312 -0.5625 13.609375 -0.765625 13.515625 -1.015625 C 13.421875 -1.265625 13.320312 -1.601562 13.21875 -2.03125 L 12.703125 -4.015625 C 12.441406 -4.992188 12.015625 -5.726562 11.421875 -6.21875 C 10.835938 -6.707031 10.050781 -6.953125 9.0625 -6.953125 L 5.9375 -6.953125 L 5.9375 0 Z M 5.9375 -9.625 L 10.09375 -9.625 C 11.070312 -9.625 11.835938 -9.84375 12.390625 -10.28125 C 12.953125 -10.71875 13.234375 -11.453125 13.234375 -12.484375 C 13.234375 -13.160156 13.109375 -13.679688 12.859375 -14.046875 C 12.609375 -14.410156 12.253906 -14.660156 11.796875 -14.796875 C 11.335938 -14.941406 10.796875 -15.015625 10.171875 -15.015625 L 5.9375 -15.015625 Z M 5.9375 -9.625 "/></g></g></g><g fill="#19467e" fill-opacity="1"><g transform="translate(89.121732, 24.53383)"><g><path d="M 8.734375 0.5 C 7.742188 0.5 6.796875 0.382812 5.890625 0.15625 C 4.992188 -0.0703125 4.179688 -0.410156 3.453125 -0.859375 C 2.734375 -1.304688 2.125 -1.859375 1.625 -2.515625 C 1.132812 -3.179688 0.800781 -3.953125 0.625 -4.828125 L 3.640625 -6.09375 L 3.71875 -6.0625 C 4 -4.945312 4.578125 -4.113281 5.453125 -3.5625 C 6.328125 -3.007812 7.394531 -2.734375 8.65625 -2.734375 C 9.5 -2.734375 10.164062 -2.84375 10.65625 -3.0625 C 11.15625 -3.289062 11.507812 -3.578125 11.71875 -3.921875 C 11.9375 -4.265625 12.046875 -4.613281 12.046875 -4.96875 C 12.046875 -5.4375 11.925781 -5.8125 11.6875 -6.09375 C 11.445312 -6.375 11.085938 -6.617188 10.609375 -6.828125 C 10.140625 -7.035156 9.566406 -7.25 8.890625 -7.46875 L 6.140625 -8.21875 C 4.566406 -8.6875 3.363281 -9.34375 2.53125 -10.1875 C 1.695312 -11.039062 1.28125 -12.148438 1.28125 -13.515625 C 1.28125 -14.628906 1.566406 -15.566406 2.140625 -16.328125 C 2.722656 -17.085938 3.539062 -17.660156 4.59375 -18.046875 C 5.65625 -18.441406 6.90625 -18.640625 8.34375 -18.640625 C 10.320312 -18.640625 11.925781 -18.207031 13.15625 -17.34375 C 14.394531 -16.488281 15.273438 -15.242188 15.796875 -13.609375 L 12.640625 -12.53125 L 12.546875 -12.5625 C 12.398438 -13.175781 12.171875 -13.671875 11.859375 -14.046875 C 11.554688 -14.429688 11.207031 -14.722656 10.8125 -14.921875 C 10.425781 -15.128906 10.023438 -15.269531 9.609375 -15.34375 C 9.191406 -15.414062 8.804688 -15.453125 8.453125 -15.453125 C 7.671875 -15.453125 7.035156 -15.351562 6.546875 -15.15625 C 6.066406 -14.96875 5.71875 -14.722656 5.5 -14.421875 C 5.28125 -14.128906 5.171875 -13.828125 5.171875 -13.515625 C 5.171875 -13.054688 5.289062 -12.6875 5.53125 -12.40625 C 5.769531 -12.125 6.082031 -11.894531 6.46875 -11.71875 C 6.863281 -11.550781 7.28125 -11.394531 7.71875 -11.25 L 10.734375 -10.46875 C 11.597656 -10.195312 12.363281 -9.90625 13.03125 -9.59375 C 13.695312 -9.28125 14.253906 -8.914062 14.703125 -8.5 C 15.160156 -8.09375 15.503906 -7.613281 15.734375 -7.0625 C 15.960938 -6.507812 16.078125 -5.851562 16.078125 -5.09375 C 16.078125 -4.28125 15.910156 -3.53125 15.578125 -2.84375 C 15.242188 -2.164062 14.757812 -1.578125 14.125 -1.078125 C 13.488281 -0.578125 12.71875 -0.191406 11.8125 0.078125 C 10.90625 0.359375 9.878906 0.5 8.734375 0.5 Z M 8.734375 0.5 "/></g></g></g></g></g><g transform="matrix(1, 0, 0, 1, 151, 278)"><g clip-path="url(#acfc451bd2)"><g fill="#252536" fill-opacity="1"><g transform="translate(0.883258, 5.930573)"><g><path d="M 0.546875 0 L 0.546875 -4.40625 L 3.5625 -4.40625 L 3.5625 -3.90625 L 1.15625 -3.90625 L 1.15625 -2.3125 L 3.078125 -2.3125 L 3.078125 -1.8125 L 1.15625 -1.8125 L 1.15625 0 Z M 0.546875 0 "/></g></g></g><g fill="#252536" fill-opacity="1"><g transform="translate(7.784516, 5.930573)"><g><path d="M 2.375 0.109375 C 1.9375 0.109375 1.554688 0.0195312 1.234375 -0.15625 C 0.910156 -0.34375 0.664062 -0.609375 0.5 -0.953125 C 0.332031 -1.296875 0.25 -1.710938 0.25 -2.203125 C 0.25 -2.691406 0.332031 -3.109375 0.5 -3.453125 C 0.664062 -3.796875 0.910156 -4.054688 1.234375 -4.234375 C 1.554688 -4.421875 1.941406 -4.515625 2.390625 -4.515625 C 2.828125 -4.515625 3.207031 -4.421875 3.53125 -4.234375 C 3.851562 -4.054688 4.097656 -3.796875 4.265625 -3.453125 C 4.429688 -3.109375 4.515625 -2.691406 4.515625 -2.203125 C 4.515625 -1.710938 4.429688 -1.296875 4.265625 -0.953125 C 4.097656 -0.609375 3.851562 -0.34375 3.53125 -0.15625 C 3.207031 0.0195312 2.820312 0.109375 2.375 0.109375 Z M 2.390625 -0.421875 C 2.703125 -0.421875 2.96875 -0.488281 3.1875 -0.625 C 3.414062 -0.757812 3.585938 -0.957031 3.703125 -1.21875 C 3.816406 -1.488281 3.875 -1.816406 3.875 -2.203125 C 3.875 -2.578125 3.816406 -2.894531 3.703125 -3.15625 C 3.585938 -3.425781 3.414062 -3.628906 3.1875 -3.765625 C 2.96875 -3.910156 2.703125 -3.984375 2.390625 -3.984375 C 2.066406 -3.984375 1.789062 -3.910156 1.5625 -3.765625 C 1.34375 -3.628906 1.171875 -3.425781 1.046875 -3.15625 C 0.929688 -2.894531 0.875 -2.578125 0.875 -2.203125 C 0.875 -1.816406 0.929688 -1.488281 1.046875 -1.21875 C 1.171875 -0.957031 1.34375 -0.757812 1.5625 -0.625 C 1.789062 -0.488281 2.066406 -0.421875 2.390625 -0.421875 Z M 2.390625 -0.421875 "/></g></g></g><g fill="#252536" fill-opacity="1"><g transform="translate(15.711509, 5.930573)"><g><path d="M 2.25 0.109375 C 1.832031 0.109375 1.488281 0.0390625 1.21875 -0.09375 C 0.945312 -0.238281 0.742188 -0.445312 0.609375 -0.71875 C 0.484375 -0.988281 0.421875 -1.3125 0.421875 -1.6875 L 0.421875 -4.40625 L 1.046875 -4.40625 L 1.046875 -1.671875 C 1.046875 -1.253906 1.144531 -0.9375 1.34375 -0.71875 C 1.550781 -0.5 1.859375 -0.390625 2.265625 -0.390625 C 2.660156 -0.390625 2.960938 -0.5 3.171875 -0.71875 C 3.378906 -0.9375 3.484375 -1.253906 3.484375 -1.671875 L 3.484375 -4.40625 L 4.078125 -4.40625 L 4.078125 -1.6875 C 4.078125 -1.113281 3.925781 -0.671875 3.625 -0.359375 C 3.320312 -0.046875 2.863281 0.109375 2.25 0.109375 Z M 2.25 0.109375 "/></g></g></g><g fill="#252536" fill-opacity="1"><g transform="translate(23.37439, 5.930573)"><g><path d="M 0.546875 0 L 0.546875 -4.40625 L 1.1875 -4.40625 L 3.484375 -1.109375 L 3.703125 -0.78125 L 3.671875 -1.140625 L 3.671875 -4.40625 L 4.21875 -4.40625 L 4.21875 0 L 3.578125 0 L 1.28125 -3.296875 L 1.0625 -3.625 L 1.09375 -3.25 L 1.09375 0 Z M 0.546875 0 "/></g></g></g><g fill="#252536" fill-opacity="1"><g transform="translate(31.29524, 5.930573)"><g><path d="M 0.546875 0 L 0.546875 -4.40625 L 2.1875 -4.40625 C 2.65625 -4.40625 3.050781 -4.320312 3.375 -4.15625 C 3.707031 -3.988281 3.960938 -3.738281 4.140625 -3.40625 C 4.316406 -3.082031 4.40625 -2.6875 4.40625 -2.21875 C 4.40625 -1.726562 4.3125 -1.316406 4.125 -0.984375 C 3.945312 -0.660156 3.6875 -0.414062 3.34375 -0.25 C 3.007812 -0.0820312 2.609375 0 2.140625 0 Z M 1.140625 -0.484375 L 2.1875 -0.484375 C 2.539062 -0.484375 2.832031 -0.550781 3.0625 -0.6875 C 3.289062 -0.832031 3.460938 -1.035156 3.578125 -1.296875 C 3.703125 -1.566406 3.765625 -1.882812 3.765625 -2.25 C 3.765625 -2.789062 3.628906 -3.203125 3.359375 -3.484375 C 3.097656 -3.765625 2.71875 -3.90625 2.21875 -3.90625 L 1.140625 -3.90625 Z M 1.140625 -0.484375 "/></g></g></g><g fill="#252536" fill-opacity="1"><g transform="translate(39.105532, 5.930573)"><g><path d="M 3.671875 0 L 3.265625 -1.09375 L 1.140625 -1.09375 L 0.71875 0 L 0.09375 0 L 1.84375 -4.40625 L 2.578125 -4.40625 L 4.328125 0 Z M 1.328125 -1.609375 L 3.0625 -1.609375 L 2.1875 -3.90625 Z M 1.328125 -1.609375 "/></g></g></g><g fill="#252536" fill-opacity="1"><g transform="translate(46.685495, 5.930573)"><g><path d="M 1.59375 0 L 1.59375 -3.890625 L 0.0625 -3.890625 L 0.0625 -4.40625 L 3.75 -4.40625 L 3.75 -3.890625 L 2.203125 -3.890625 L 2.203125 0 Z M 1.59375 0 "/></g></g></g><g fill="#252536" fill-opacity="1"><g transform="translate(53.660459, 5.930573)"><g><path d="M 2.34375 -3.90625 L 1.609375 -3.90625 L 1.609375 -0.484375 L 2.34375 -0.484375 L 2.34375 0 L 0.265625 0 L 0.265625 -0.484375 L 1 -0.484375 L 1 -3.90625 L 0.265625 -3.90625 L 0.265625 -4.40625 L 2.34375 -4.40625 Z M 2.34375 -3.90625 "/></g></g></g><g fill="#252536" fill-opacity="1"><g transform="translate(59.428495, 5.930573)"><g><path d="M 2.375 0.109375 C 1.9375 0.109375 1.554688 0.0195312 1.234375 -0.15625 C 0.910156 -0.34375 0.664062 -0.609375 0.5 -0.953125 C 0.332031 -1.296875 0.25 -1.710938 0.25 -2.203125 C 0.25 -2.691406 0.332031 -3.109375 0.5 -3.453125 C 0.664062 -3.796875 0.910156 -4.054688 1.234375 -4.234375 C 1.554688 -4.421875 1.941406 -4.515625 2.390625 -4.515625 C 2.828125 -4.515625 3.207031 -4.421875 3.53125 -4.234375 C 3.851562 -4.054688 4.097656 -3.796875 4.265625 -3.453125 C 4.429688 -3.109375 4.515625 -2.691406 4.515625 -2.203125 C 4.515625 -1.710938 4.429688 -1.296875 4.265625 -0.953125 C 4.097656 -0.609375 3.851562 -0.34375 3.53125 -0.15625 C 3.207031 0.0195312 2.820312 0.109375 2.375 0.109375 Z M 2.390625 -0.421875 C 2.703125 -0.421875 2.96875 -0.488281 3.1875 -0.625 C 3.414062 -0.757812 3.585938 -0.957031 3.703125 -1.21875 C 3.816406 -1.488281 3.875 -1.816406 3.875 -2.203125 C 3.875 -2.578125 3.816406 -2.894531 3.703125 -3.15625 C 3.585938 -3.425781 3.414062 -3.628906 3.1875 -3.765625 C 2.96875 -3.910156 2.703125 -3.984375 2.390625 -3.984375 C 2.066406 -3.984375 1.789062 -3.910156 1.5625 -3.765625 C 1.34375 -3.628906 1.171875 -3.425781 1.046875 -3.15625 C 0.929688 -2.894531 0.875 -2.578125 0.875 -2.203125 C 0.875 -1.816406 0.929688 -1.488281 1.046875 -1.21875 C 1.171875 -0.957031 1.34375 -0.757812 1.5625 -0.625 C 1.789062 -0.488281 2.066406 -0.421875 2.390625 -0.421875 Z M 2.390625 -0.421875 "/></g></g></g><g fill="#252536" fill-opacity="1"><g transform="translate(67.355488, 5.930573)"><g><path d="M 0.546875 0 L 0.546875 -4.40625 L 1.1875 -4.40625 L 3.484375 -1.109375 L 3.703125 -0.78125 L 3.671875 -1.140625 L 3.671875 -4.40625 L 4.21875 -4.40625 L 4.21875 0 L 3.578125 0 L 1.28125 -3.296875 L 1.0625 -3.625 L 1.09375 -3.25 L 1.09375 0 Z M 0.546875 0 "/></g></g></g></g></g></svg>